<svg aria-hidden="true" style="position: absolute; width: 0; height: 0; overflow: hidden;" version="1.1" xmlns="http://www.w3.org/2000/svg" xmlns:xlink="http://www.w3.org/1999/xlink">
<defs>
<symbol id="bike" viewBox="0 0 36 32">
<path fill="#fff" style="fill: var(--color1, #fff)" d="M7.407 29.692c-1.375 0-2.694-0.567-3.667-1.577s-1.519-2.379-1.519-3.808c0-1.428 0.546-2.798 1.519-3.808s2.291-1.577 3.667-1.577c1.375 0 2.694 0.567 3.666 1.577s1.519 2.379 1.519 3.808c0 1.428-0.546 2.798-1.519 3.808s-2.291 1.577-3.667 1.577zM7.407 16.615c-1.965 0-3.849 0.81-5.238 2.253s-2.17 3.399-2.17 5.439c0 2.040 0.78 3.997 2.17 5.439s3.273 2.253 5.238 2.253c1.964 0 3.849-0.81 5.238-2.253s2.17-3.399 2.17-5.439-0.78-3.997-2.17-5.439c-1.389-1.443-3.273-2.253-5.238-2.253zM21.926 13.539h6.222v-2.769h-4.741l-2.874-5.031c-0.43-0.769-1.274-1.277-2.163-1.277-0.696 0-1.333 0.292-1.778 0.769l-5.481 5.677c-0.459 0.477-0.741 1.092-0.741 1.862 0 0.969 0.489 1.785 1.259 2.262l4.963 3.123v7.692h2.667v-10l-3.333-2.539 3.437-3.615 2.563 3.846zM28.148 29.692c-1.375 0-2.694-0.567-3.666-1.577s-1.519-2.379-1.519-3.808c0-1.428 0.546-2.798 1.519-3.808s2.291-1.577 3.666-1.577c1.375 0 2.694 0.567 3.666 1.577s1.519 2.379 1.519 3.808c0 1.428-0.546 2.798-1.519 3.808s-2.291 1.577-3.666 1.577zM28.148 16.615c-1.965 0-3.849 0.81-5.238 2.253s-2.17 3.399-2.17 5.439c0 2.040 0.78 3.997 2.17 5.439s3.273 2.253 5.238 2.253c0.973 0 1.936-0.199 2.835-0.586s1.715-0.953 2.403-1.668c0.688-0.714 1.233-1.562 1.606-2.496s0.564-1.934 0.564-2.944c0-1.010-0.192-2.010-0.564-2.944s-0.918-1.781-1.606-2.496c-0.688-0.714-1.504-1.281-2.403-1.668s-1.862-0.586-2.835-0.586zM23.704 5.538c1.482 0 2.667-1.231 2.667-2.769s-1.185-2.769-2.667-2.769c-1.481 0-2.667 1.231-2.667 2.769s1.185 2.769 2.667 2.769z"></path>
</symbol>
<symbol id="calc" viewBox="0 0 32 32">
<path fill="#fff" style="fill: var(--color1, #fff)" d="M8.444 17.778c0.589 0 1.155-0.234 1.571-0.651s0.651-0.982 0.651-1.571-0.234-1.155-0.651-1.571c-0.417-0.417-0.982-0.651-1.571-0.651s-1.155 0.234-1.571 0.651c-0.417 0.417-0.651 0.982-0.651 1.571s0.234 1.155 0.651 1.571c0.417 0.417 0.982 0.651 1.571 0.651zM18.222 15.556c0 0.589-0.234 1.155-0.651 1.571s-0.982 0.651-1.571 0.651-1.155-0.234-1.571-0.651c-0.417-0.417-0.651-0.982-0.651-1.571s0.234-1.155 0.651-1.571c0.417-0.417 0.982-0.651 1.571-0.651s1.155 0.234 1.571 0.651c0.417 0.417 0.651 0.982 0.651 1.571zM23.556 17.778c0.589 0 1.155-0.234 1.571-0.651s0.651-0.982 0.651-1.571c0-0.589-0.234-1.155-0.651-1.571s-0.982-0.651-1.571-0.651-1.155 0.234-1.571 0.651c-0.417 0.417-0.651 0.982-0.651 1.571s0.234 1.155 0.651 1.571c0.417 0.417 0.982 0.651 1.571 0.651zM10.667 22.667c0 0.589-0.234 1.155-0.651 1.571s-0.982 0.651-1.571 0.651-1.155-0.234-1.571-0.651c-0.417-0.417-0.651-0.982-0.651-1.571s0.234-1.155 0.651-1.571 0.982-0.651 1.571-0.651c0.589 0 1.155 0.234 1.571 0.651s0.651 0.982 0.651 1.571zM16 24.889c0.589 0 1.155-0.234 1.571-0.651s0.651-0.982 0.651-1.571c0-0.589-0.234-1.155-0.651-1.571s-0.982-0.651-1.571-0.651-1.155 0.234-1.571 0.651c-0.417 0.417-0.651 0.982-0.651 1.571s0.234 1.155 0.651 1.571c0.417 0.417 0.982 0.651 1.571 0.651zM0 5.556c0-1.473 0.585-2.886 1.627-3.928s2.455-1.627 3.928-1.627h20.889c1.473 0 2.887 0.585 3.928 1.627s1.627 2.455 1.627 3.928v20.889c0 1.473-0.585 2.887-1.627 3.928s-2.455 1.627-3.928 1.627h-20.889c-1.473 0-2.886-0.585-3.928-1.627s-1.627-2.455-1.627-3.928v-20.889zM5.556 2.222c-0.884 0-1.732 0.351-2.357 0.976s-0.976 1.473-0.976 2.357v1.556h27.556v-1.556c0-0.884-0.351-1.732-0.976-2.357s-1.473-0.976-2.357-0.976h-20.889zM2.222 26.444c0 0.884 0.351 1.732 0.976 2.357s1.473 0.976 2.357 0.976h20.889c0.884 0 1.732-0.351 2.357-0.976s0.976-1.473 0.976-2.357v-17.111h-27.556v17.111z"></path>
</symbol>
<symbol id="inst" viewBox="0 0 32 32">
<path fill="#f8f8f8" style="fill: var(--color2, #f8f8f8)" d="M9.468 0.495c1.645-0.076 2.169-0.093 6.359-0.093s4.714 0.018 6.358 0.093c1.643 0.074 2.765 0.337 3.747 0.717 1.028 0.388 1.96 0.996 2.732 1.781 0.785 0.77 1.391 1.701 1.778 2.73 0.381 0.982 0.642 2.103 0.718 3.744 0.076 1.648 0.093 2.172 0.093 6.361 0 4.19-0.018 4.714-0.093 6.359-0.074 1.641-0.337 2.762-0.718 3.744-0.387 1.029-0.994 1.962-1.778 2.733-0.771 0.785-1.704 1.391-2.732 1.778-0.982 0.381-2.103 0.642-3.744 0.718-1.646 0.076-2.171 0.093-6.361 0.093s-4.714-0.018-6.359-0.093c-1.641-0.074-2.762-0.337-3.744-0.718-1.029-0.387-1.962-0.994-2.733-1.778-0.785-0.77-1.392-1.702-1.779-2.732-0.38-0.982-0.641-2.103-0.717-3.744-0.076-1.648-0.093-2.172-0.093-6.361 0-4.19 0.018-4.714 0.093-6.358s0.337-2.765 0.717-3.747c0.388-1.029 0.996-1.961 1.781-2.732 0.77-0.785 1.702-1.392 2.73-1.779 0.982-0.38 2.103-0.641 3.744-0.717h0.001zM22.060 3.271c-1.627-0.074-2.115-0.090-6.233-0.090s-4.606 0.015-6.233 0.090c-1.505 0.069-2.321 0.32-2.865 0.531-0.719 0.28-1.234 0.613-1.774 1.153-0.512 0.498-0.906 1.104-1.153 1.774-0.212 0.544-0.463 1.36-0.531 2.865-0.074 1.627-0.090 2.115-0.090 6.233s0.015 4.606 0.090 6.233c0.069 1.505 0.32 2.321 0.531 2.865 0.247 0.669 0.641 1.276 1.153 1.774 0.498 0.512 1.105 0.906 1.774 1.153 0.544 0.212 1.36 0.463 2.865 0.532 1.627 0.074 2.113 0.090 6.233 0.090s4.606-0.015 6.233-0.090c1.505-0.069 2.321-0.32 2.865-0.532 0.719-0.28 1.234-0.613 1.774-1.153 0.512-0.498 0.906-1.105 1.153-1.774 0.212-0.544 0.463-1.36 0.531-2.865 0.074-1.627 0.090-2.115 0.090-6.233s-0.015-4.606-0.090-6.233c-0.069-1.505-0.32-2.321-0.531-2.865-0.28-0.719-0.613-1.234-1.153-1.774-0.498-0.512-1.104-0.906-1.774-1.153-0.544-0.212-1.36-0.463-2.865-0.531v0zM13.857 20.582c1.1 0.458 2.326 0.52 3.466 0.175s2.126-1.075 2.789-2.066 0.96-2.181 0.842-3.367c-0.118-1.186-0.644-2.294-1.488-3.136-0.538-0.538-1.189-0.95-1.905-1.206s-1.481-0.35-2.238-0.276c-0.757 0.075-1.488 0.316-2.141 0.707s-1.21 0.922-1.633 1.555c-0.423 0.633-0.7 1.351-0.812 2.104s-0.055 1.52 0.165 2.249 0.6 1.398 1.111 1.962c0.511 0.564 1.14 1.008 1.843 1.299zM10.221 10.221c0.736-0.736 1.61-1.32 2.572-1.719s1.993-0.604 3.034-0.604c1.041 0 2.072 0.205 3.034 0.604s1.836 0.982 2.572 1.719c0.736 0.736 1.32 1.61 1.719 2.572s0.604 1.993 0.604 3.034c0 1.041-0.205 2.072-0.604 3.034s-0.982 1.836-1.719 2.572c-1.487 1.487-3.503 2.322-5.606 2.322s-4.119-0.835-5.606-2.322c-1.487-1.487-2.322-3.503-2.322-5.606s0.835-4.119 2.322-5.606v0zM25.514 9.079c0.182-0.172 0.329-0.379 0.43-0.609s0.155-0.477 0.159-0.728c0.004-0.251-0.043-0.5-0.137-0.732s-0.234-0.444-0.412-0.621c-0.177-0.177-0.389-0.317-0.621-0.412s-0.481-0.141-0.732-0.137c-0.251 0.004-0.498 0.058-0.728 0.159s-0.436 0.247-0.609 0.43c-0.335 0.355-0.518 0.826-0.511 1.314s0.204 0.953 0.549 1.298c0.345 0.345 0.811 0.542 1.298 0.549s0.959-0.176 1.314-0.511v0z"></path>
</symbol>
<symbol id="logo1" viewBox="0 0 32 32">
<path fill="#fff" style="fill: var(--color1, #fff)" d="M2.764 8.355c0.258-0.328 0.598-0.772 0.87-1.089 0.815-0.875 0.92-0.989 1.662-1.636 0.22-0.171 0.481-0.376 0.736-0.569-1.882 1.507-2.121 3.175-0.395 4.205-0.003 0-0.003 0-0.003 0.003 2.414 1.376 7.706 1.079 11.881-0.684 4.044-1.707 5.537-4.148 3.541-5.599-1.752-0.311-3.841-0.347-6.051-0.067l-0.23-0.359 0.19-0.595c1.3-0.111 2.534-0.084 3.6 0.088 0.258 0.041 0.598 0.112 0.851 0.163 0.491 0.113 0.757 0.181 1.077 0.279 0.327 0.092 0.606 0.184 1.092 0.355 0.476 0.177 0.682 0.257 1.064 0.437 0.428 0.185 0.843 0.393 1.245 0.625 3.18 1.892 1.202 5.344-4.409 7.709-5.596 2.357-12.726 2.728-15.922 0.859-0.001-0.003-0.006-0.005-0.014-0.008h0.006c-1.745-1.045-1.928-2.563-0.791-4.117zM17.323 21.581l-0.045-2.125-1.597-1.68c-5.276 1.131-10.461 0.888-13.345-0.719-0.010-0.011-0.034-0.021-0.044-0.032-1.632-0.951-2.035-2.177-1.913-3.511-0.382 1.951-0.413 2.655-0.358 4.324 0.068 1.045 0.706 2.009 1.99 2.769l0.010 0.011c3.074 1.808 9.479 2.2 15.302 0.963zM23.983 24.015c-7.446 2.825-16.766 2.992-20.814 0.377 0.437 1.011 1.032 1.954 1.765 2.797 3.715 2.4 12.27 2.247 19.102-0.347 3.999-1.516 6.522-3.533 7.184-5.424l0.186-0.569c0.441-1.443 0.524-2.644 0.595-3.713-0.080 2.321-2.971 4.961-8.017 6.879zM7.545 29.456c0.234 0.211 0.97 1.065 4.698 2.009 1.008 0.211 3.545 0.887 8.232-0.096l0.028-0.404-0.371-0.549c-4.348 0.973-9.179 0.648-12.587-0.96zM18.305 12.644l3.959 2.839c0 0 0.847 0.577 0.048 0.983-0.796 0.401-2.842 1.384-2.842 1.384l-2.020-0.713-1.013 0.427 1.787 1.468 0.014 2.284 1.050-0.441 0.696-1.929c0 0 2.138-0.779 2.987-1.072 0.853-0.287 0.739 0.695 0.739 0.695l-0.42 4.681 1.395-0.587 2.297-6.316c0 0 1.218-0.56 2.075-1.052 0.856-0.492 1.149-1.308 1.149-1.308s-0.834-0.34-1.796-0.067c-0.961 0.271-2.214 0.753-2.214 0.753l-6.501-2.612-1.391 0.584zM9.928 3.663l2.688 2.025 0.734-0.104-1.463-1.817c0 0-0.319-0.376 0.11-0.465 0.431-0.091 1.522-0.301 1.522-0.301l0.82 0.62 0.553-0.077-0.626-0.941 0.33-1.044-0.534 0.073-0.633 0.795c0 0-1.111 0.099-1.548 0.133-0.44 0.032-0.251-0.415-0.251-0.415l0.843-2.144-0.739 0.103-1.945 2.679c0 0-0.648 0.112-1.118 0.239-0.471 0.125-0.719 0.469-0.719 0.469s0.345 0.264 0.832 0.255c0.491-0.009 1.143-0.081 1.143-0.081zM23.213 29.687l-1.739-0.86-0.4 0.132 1.030 0.872c0 0 0.22 0.177-0.011 0.272-0.231 0.093-0.82 0.323-0.82 0.323l-0.486-0.205-0.289 0.099 0.405 0.408-0.039 0.596 0.302-0.099 0.226-0.484c0 0 0.612-0.172 0.856-0.233 0.242-0.063 0.187 0.207 0.187 0.207l-0.23 1.287 0.402-0.132 0.788-1.701c0 0 0.348-0.129 0.598-0.248s0.348-0.337 0.348-0.337-0.221-0.115-0.495-0.057c-0.275 0.055-0.63 0.163-0.63 0.163z"></path>
</symbol>
<symbol id="logo" viewBox="0 0 32 32">
<path d="M2.764 8.355c0.258-0.328 0.598-0.772 0.87-1.089 0.815-0.875 0.92-0.989 1.662-1.636 0.22-0.171 0.481-0.376 0.736-0.569-1.882 1.507-2.121 3.175-0.395 4.205-0.003 0-0.003 0-0.003 0.003 2.414 1.376 7.706 1.079 11.881-0.684 4.044-1.707 5.537-4.148 3.541-5.599-1.752-0.311-3.841-0.347-6.051-0.067l-0.23-0.359 0.19-0.595c1.3-0.111 2.534-0.084 3.6 0.088 0.258 0.041 0.598 0.112 0.851 0.163 0.491 0.113 0.757 0.181 1.077 0.279 0.327 0.092 0.606 0.184 1.092 0.355 0.476 0.177 0.682 0.257 1.064 0.437 0.428 0.185 0.843 0.393 1.245 0.625 3.18 1.892 1.202 5.344-4.409 7.709-5.596 2.357-12.726 2.728-15.922 0.859-0.001-0.003-0.006-0.005-0.014-0.008h0.006c-1.745-1.045-1.928-2.563-0.791-4.117zM17.323 21.581l-0.045-2.125-1.597-1.68c-5.276 1.131-10.461 0.888-13.345-0.719-0.010-0.011-0.034-0.021-0.044-0.032-1.632-0.951-2.035-2.177-1.913-3.511-0.382 1.951-0.413 2.655-0.358 4.324 0.068 1.045 0.706 2.009 1.99 2.769l0.010 0.011c3.074 1.808 9.479 2.2 15.302 0.963zM23.983 24.015c-7.446 2.825-16.766 2.992-20.814 0.377 0.437 1.011 1.032 1.954 1.765 2.797 3.715 2.4 12.27 2.247 19.102-0.347 3.999-1.516 6.522-3.533 7.184-5.424l0.186-0.569c0.441-1.443 0.524-2.644 0.595-3.713-0.080 2.321-2.971 4.961-8.017 6.879zM7.545 29.456c0.234 0.211 0.97 1.065 4.698 2.009 1.008 0.211 3.545 0.887 8.232-0.096l0.028-0.404-0.371-0.549c-4.348 0.973-9.179 0.648-12.587-0.96zM18.305 12.644l3.959 2.839c0 0 0.847 0.577 0.048 0.983-0.796 0.401-2.842 1.384-2.842 1.384l-2.020-0.713-1.013 0.427 1.787 1.468 0.014 2.284 1.050-0.441 0.696-1.929c0 0 2.138-0.779 2.987-1.072 0.853-0.287 0.739 0.695 0.739 0.695l-0.42 4.681 1.395-0.587 2.297-6.316c0 0 1.218-0.56 2.075-1.052 0.856-0.492 1.149-1.308 1.149-1.308s-0.834-0.34-1.796-0.067c-0.961 0.271-2.214 0.753-2.214 0.753l-6.501-2.612-1.391 0.584zM9.928 3.663l2.688 2.025 0.734-0.104-1.463-1.817c0 0-0.319-0.376 0.11-0.465 0.431-0.091 1.522-0.301 1.522-0.301l0.82 0.62 0.553-0.077-0.626-0.941 0.33-1.044-0.534 0.073-0.633 0.795c0 0-1.111 0.099-1.548 0.133-0.44 0.032-0.251-0.415-0.251-0.415l0.843-2.144-0.739 0.103-1.945 2.679c0 0-0.648 0.112-1.118 0.239-0.471 0.125-0.719 0.469-0.719 0.469s0.345 0.264 0.832 0.255c0.491-0.009 1.143-0.081 1.143-0.081zM23.213 29.687l-1.739-0.86-0.4 0.132 1.030 0.872c0 0 0.22 0.177-0.011 0.272-0.231 0.093-0.82 0.323-0.82 0.323l-0.486-0.205-0.289 0.099 0.405 0.408-0.039 0.596 0.302-0.099 0.226-0.484c0 0 0.612-0.172 0.856-0.233 0.242-0.063 0.187 0.207 0.187 0.207l-0.23 1.287 0.402-0.132 0.788-1.701c0 0 0.348-0.129 0.598-0.248s0.348-0.337 0.348-0.337-0.221-0.115-0.495-0.057c-0.275 0.055-0.63 0.163-0.63 0.163z"></path>
</symbol>
<symbol id="next" viewBox="0 0 50 32">
<path fill="#fff" style="fill: var(--color1, #fff)" d="M0.696 16c0-0.461 0.183-0.904 0.509-1.23s0.768-0.509 1.23-0.509h41.019l-10.946-10.943c-0.327-0.327-0.51-0.769-0.51-1.231s0.183-0.905 0.51-1.231c0.327-0.327 0.77-0.51 1.231-0.51s0.905 0.183 1.231 0.51l13.913 13.913c0.162 0.162 0.291 0.353 0.378 0.565s0.133 0.438 0.133 0.667c0 0.229-0.045 0.455-0.133 0.667s-0.216 0.403-0.378 0.565l-13.913 13.913c-0.327 0.327-0.77 0.51-1.231 0.51s-0.905-0.183-1.231-0.51c-0.327-0.327-0.51-0.77-0.51-1.231s0.183-0.905 0.51-1.231l10.946-10.943h-41.019c-0.461 0-0.904-0.183-1.23-0.509s-0.509-0.769-0.509-1.23v0z"></path>
</symbol>
<symbol id="plane" viewBox="0 0 43 32">
<path fill="#fff" style="fill: var(--color1, #fff)" d="M38.351 30.545c0 0.386-0.152 0.756-0.421 1.029s-0.636 0.426-1.017 0.426h-25.897c-0.382 0-0.747-0.153-1.017-0.426s-0.421-0.643-0.421-1.029c0-0.386 0.152-0.756 0.421-1.028s0.636-0.426 1.017-0.426h25.897c0.382 0 0.747 0.153 1.017 0.426s0.421 0.643 0.421 1.028zM42.667 16v4.364c0 0.386-0.152 0.756-0.421 1.028s-0.636 0.426-1.017 0.426h-31.687c-1.548 0.005-3.056-0.497-4.298-1.431s-2.151-2.25-2.59-3.751l-2.536-8.527c-0.126-0.436-0.151-0.896-0.073-1.344s0.257-0.871 0.522-1.238c0.272-0.362 0.623-0.655 1.025-0.857s0.846-0.307 1.295-0.307h3.093c0.21 0 0.417 0.048 0.607 0.139s0.357 0.224 0.49 0.388l3.165 3.836h3.093l-1.619-4.891c-0.146-0.438-0.186-0.905-0.118-1.362s0.243-0.891 0.51-1.266c0.267-0.375 0.619-0.68 1.026-0.89s0.858-0.319 1.315-0.318h3.039c0.2-0.001 0.398 0.041 0.58 0.122s0.347 0.201 0.481 0.351l7.481 8.255h9.441c1.908 0 3.738 0.766 5.087 2.13s2.107 3.214 2.107 5.143zM39.789 16c-0.005-1.156-0.461-2.263-1.269-3.080s-1.903-1.279-3.047-1.283h-10.071c-0.2 0.001-0.398-0.041-0.58-0.122s-0.347-0.201-0.481-0.351l-7.481-8.255h-2.41l2.248 6.818c0.070 0.219 0.089 0.451 0.055 0.678s-0.121 0.443-0.253 0.631c-0.133 0.188-0.308 0.34-0.512 0.444s-0.429 0.158-0.657 0.156h-5.755c-0.21-0.001-0.417-0.048-0.607-0.139s-0.357-0.224-0.49-0.388l-3.165-3.836h-2.446l2.536 8.527c0.264 0.901 0.81 1.69 1.556 2.251s1.651 0.862 2.58 0.858h30.249v-2.909z"></path>
</symbol>
<symbol id="play" viewBox="0 0 38 32">
<path fill="none" stroke="#f8f8f8" style="stroke: var(--color2, #f8f8f8)" stroke-linejoin="round" stroke-linecap="round" stroke-miterlimit="4" stroke-width="4.7619" d="M28.451 2.982h-19.231c-3.54 0-6.41 2.87-6.41 6.41v12.821c0 3.54 2.87 6.41 6.41 6.41h19.231c3.54 0 6.41-2.87 6.41-6.41v-12.821c0-3.54-2.87-6.41-6.41-6.41z"></path>
<path fill="none" stroke="#f8f8f8" style="stroke: var(--color2, #f8f8f8)" stroke-linejoin="round" stroke-linecap="round" stroke-miterlimit="4" stroke-width="4.7619" d="M23.643 15.802l-8.013-4.808v9.615l8.013-4.808z"></path>
</symbol>
<symbol id="twitter" viewBox="0 0 39 32">
<path fill="#f8f8f8" style="fill: var(--color2, #f8f8f8)" d="M38.473 4.649c-1.388 0.615-2.878 1.030-4.446 1.218 1.617-0.968 2.827-2.49 3.404-4.284-1.519 0.902-3.182 1.538-4.916 1.878-1.166-1.245-2.71-2.070-4.393-2.348s-3.411 0.009-4.915 0.814c-1.504 0.805-2.7 2.084-3.402 3.639s-0.872 3.297-0.482 4.958c-3.078-0.155-6.090-0.955-8.839-2.348s-5.175-3.35-7.119-5.742c-0.665 1.147-1.047 2.476-1.047 3.892-0.001 1.275 0.313 2.53 0.914 3.654s1.47 2.083 2.53 2.791c-1.229-0.039-2.432-0.371-3.507-0.969v0.1c-0 1.788 0.618 3.521 1.75 4.904s2.708 2.333 4.46 2.687c-1.14 0.309-2.336 0.354-3.497 0.133 0.494 1.538 1.457 2.884 2.754 3.847s2.863 1.498 4.478 1.527c-2.742 2.153-6.129 3.321-9.616 3.316-0.618 0-1.235-0.036-1.848-0.108 3.539 2.276 7.659 3.483 11.866 3.478 14.243 0 22.029-11.796 22.029-22.027 0-0.332-0.008-0.668-0.023-1 1.514-1.095 2.822-2.451 3.861-4.005l0.003-0.005z"></path>
</symbol>
</defs>
</svg>
